<?xml version="1.0" encoding="UTF-8" standalone="no"?>
<svg
   width="273.31512mm"
   height="70.04203mm"
   viewBox="0 0 273.31512 70.04203"
   version="1.1"
   id="svg1924"
   inkscape:version="1.2.1 (9c6d41e4, 2022-07-14)"
   sodipodi:docname="qpcr_dark.svg"
   xmlns:inkscape="http://www.inkscape.org/namespaces/inkscape"
   xmlns:sodipodi="http://sodipodi.sourceforge.net/DTD/sodipodi-0.dtd"
   xmlns:xlink="http://www.w3.org/1999/xlink"
   xmlns="http://www.w3.org/2000/svg"
   xmlns:svg="http://www.w3.org/2000/svg"
   xmlns:rdf="http://www.w3.org/1999/02/22-rdf-syntax-ns#"
   xmlns:cc="http://creativecommons.org/ns#"
   xmlns:dc="http://purl.org/dc/elements/1.1/">
  <defs
     id="defs1918">
    <linearGradient
       inkscape:collect="always"
       id="linearGradient11149">
      <stop
         style="stop-color:#0a00b5;stop-opacity:0.79787236;"
         offset="0"
         id="stop11145" />
      <stop
         style="stop-color:#000c7f;stop-opacity:0;"
         offset="1"
         id="stop11147" />
    </linearGradient>
    <linearGradient
       inkscape:collect="always"
       id="linearGradient11044">
      <stop
         style="stop-color:#7e0dff;stop-opacity:1;"
         offset="0"
         id="stop11040" />
      <stop
         style="stop-color:#db0dff;stop-opacity:0;"
         offset="1"
         id="stop11042" />
    </linearGradient>
    <linearGradient
       inkscape:collect="always"
       id="linearGradient10815">
      <stop
         style="stop-color:#95fffd;stop-opacity:1;"
         offset="0"
         id="stop10811" />
      <stop
         style="stop-color:#95ffed;stop-opacity:0;"
         offset="1"
         id="stop10813" />
    </linearGradient>
    <linearGradient
       inkscape:collect="always"
       id="linearGradient9823">
      <stop
         style="stop-color:#000000;stop-opacity:0;"
         offset="0"
         id="stop9821" />
      <stop
         style="stop-color:#000000;stop-opacity:1;"
         offset="1"
         id="stop9819" />
    </linearGradient>
    <linearGradient
       inkscape:collect="always"
       xlink:href="#linearGradient9823"
       id="linearGradient9825"
       x1="1556.7175"
       y1="554.05719"
       x2="1557.3774"
       y2="555.86908"
       gradientUnits="userSpaceOnUse" />
    <linearGradient
       inkscape:collect="always"
       xlink:href="#linearGradient9823"
       id="linearGradient9831"
       gradientUnits="userSpaceOnUse"
       x1="1558.5652"
       y1="553.59491"
       x2="1559.4091"
       y2="555.26331"
       gradientTransform="translate(4.2563487,1.4830334)" />
    <linearGradient
       inkscape:collect="always"
       xlink:href="#linearGradient10815"
       id="linearGradient10817"
       x1="8203.7441"
       y1="2908.7437"
       x2="8199.8564"
       y2="2884.2832"
       gradientUnits="userSpaceOnUse" />
    <linearGradient
       inkscape:collect="always"
       xlink:href="#linearGradient10815"
       id="linearGradient10949"
       gradientUnits="userSpaceOnUse"
       x1="8238.5273"
       y1="2874.9399"
       x2="8221.4121"
       y2="2855.8684" />
    <linearGradient
       inkscape:collect="always"
       xlink:href="#linearGradient10815"
       id="linearGradient10953"
       gradientUnits="userSpaceOnUse"
       x1="8284.0889"
       y1="2831.8279"
       x2="8251.2969"
       y2="2800.5085" />
    <linearGradient
       inkscape:collect="always"
       xlink:href="#linearGradient9823"
       id="linearGradient10957"
       gradientUnits="userSpaceOnUse"
       gradientTransform="matrix(-0.95202187,0.33020777,0.28362256,0.95202187,2831.0055,-447.04424)"
       x1="1558.5652"
       y1="553.59491"
       x2="1559.4091"
       y2="555.26331" />
    <linearGradient
       inkscape:collect="always"
       xlink:href="#linearGradient11044"
       id="linearGradient11046"
       x1="8203.5684"
       y1="2864.2312"
       x2="8185.8296"
       y2="2845.3479"
       gradientUnits="userSpaceOnUse" />
    <linearGradient
       inkscape:collect="always"
       xlink:href="#linearGradient11149"
       id="linearGradient11151"
       x1="8192.5859"
       y1="2779.2515"
       x2="8198.1367"
       y2="2812.8416"
       gradientUnits="userSpaceOnUse" />
  </defs>
  <sodipodi:namedview
     inkscape:guide-bbox="true"
     showguides="true"
     id="base"
     pagecolor="#000000"
     bordercolor="#666666"
     borderopacity="1.0"
     inkscape:pageopacity="0"
     inkscape:pageshadow="2"
     inkscape:zoom="0.39876274"
     inkscape:cx="446.38072"
     inkscape:cy="198.11279"
     inkscape:document-units="mm"
     inkscape:current-layer="layer1"
     inkscape:document-rotation="0"
     showgrid="false"
     fit-margin-top="0"
     fit-margin-left="0"
     fit-margin-right="0"
     fit-margin-bottom="0"
     inkscape:window-width="1920"
     inkscape:window-height="972"
     inkscape:window-x="0"
     inkscape:window-y="23"
     inkscape:window-maximized="0"
     inkscape:showpageshadow="2"
     inkscape:pagecheckerboard="0"
     inkscape:deskcolor="#cecece" />
  <metadata
     id="metadata1921">
    <rdf:RDF>
      <cc:Work
         rdf:about="">
        <dc:format>image/svg+xml</dc:format>
        <dc:type
           rdf:resource="http://purl.org/dc/dcmitype/StillImage" />
      </cc:Work>
    </rdf:RDF>
  </metadata>
  <g
     inkscape:label="Ebene 1"
     inkscape:groupmode="layer"
     id="layer1"
     transform="translate(-77.042645,-365.03957)">
    <text
       id="text1867"
       y="414.79733"
       x="166.46574"
       style="font-size:86.4627px;line-height:0.1;font-family:sans-serif;fill:#ffffff;fill-opacity:1;stroke-width:2.16157"
       xml:space="preserve"
       inkscape:export-filename="/Users/NoahHK/Downloads/g1877.png"
       inkscape:export-xdpi="600"
       inkscape:export-ydpi="600"><tspan
         style="font-style:normal;font-variant:normal;font-weight:300;font-stretch:normal;font-family:Helvetica;-inkscape-font-specification:'Helvetica Light';fill:#ffffff;fill-opacity:1;stroke-width:2.16157"
         y="414.79733"
         x="166.46574"
         id="tspan1865"
         sodipodi:role="line">qpcr</tspan></text>
    <g
       id="g1877"
       transform="matrix(1.2486734,0,0,1.2486734,-2587.8128,-663.96841)"
       inkscape:export-filename="/Users/NoahHK/Downloads/g1877.png"
       inkscape:export-xdpi="600"
       inkscape:export-ydpi="600">
      <rect
         ry="23.48118"
         y="821.96204"
         x="2131.1826"
         height="46.96236"
         width="73.036919"
         id="rect1855"
         style="opacity:1;fill:none;fill-opacity:1;stroke:none;stroke-width:2.813;stroke-linecap:round;stroke-miterlimit:4;stroke-dasharray:none;stroke-opacity:1;stop-color:#000000" />
      <g
         transform="matrix(0.87213608,0,0,0.80827843,830.32707,380.62409)"
         id="g1863">
        <path
           id="path1857"
           style="color:#000000;font-style:normal;font-variant:normal;font-weight:normal;font-stretch:normal;font-size:medium;line-height:normal;font-family:sans-serif;font-variant-ligatures:normal;font-variant-position:normal;font-variant-caps:normal;font-variant-numeric:normal;font-variant-alternates:normal;font-variant-east-asian:normal;font-feature-settings:normal;font-variation-settings:normal;text-indent:0;text-align:start;text-decoration:none;text-decoration-line:none;text-decoration-style:solid;text-decoration-color:#000000;letter-spacing:normal;word-spacing:normal;text-transform:none;writing-mode:lr-tb;direction:ltr;text-orientation:mixed;dominant-baseline:auto;baseline-shift:baseline;text-anchor:start;white-space:normal;shape-padding:0;shape-margin:0;inline-size:0;clip-rule:nonzero;display:inline;overflow:visible;visibility:visible;opacity:1;isolation:auto;mix-blend-mode:normal;color-interpolation:sRGB;color-interpolation-filters:linearRGB;solid-color:#000000;solid-opacity:1;fill:#000d8e;fill-opacity:1;fill-rule:nonzero;stroke:none;stroke-width:11.1903;stroke-linecap:round;stroke-linejoin:miter;stroke-miterlimit:4;stroke-dasharray:none;stroke-dashoffset:0;stroke-opacity:1;color-rendering:auto;image-rendering:auto;shape-rendering:auto;text-rendering:auto;enable-background:accumulate;stop-color:#000000;stop-opacity:1"
           d="m 8271.6495,2768.9526 c -39.1352,2.1546 -98.437,14.5277 -132.9942,65.9218 -21.9569,32.6548 -49.4252,53.0131 -62.6777,61.6563 1.0036,1.8052 2.5142,3.9123 5.0058,6.332 0.4127,0.3586 0.8291,0.7124 1.2403,1.0723 -1.255,-1.132 -2.3317,-2.2073 -3.2012,-3.2129 3.1087,-0.102 7.1306,-0.3967 11.6992,-0.9648 15.4035,-11.091 38.6231,-30.6699 57.7969,-59.1856 25.2325,-37.5264 65.2398,-52.5081 98.9531,-58.1328 15.6684,-6.845 30.6186,-10.0638 41.9785,-11.5 -2.1276,-0.4925 -4.375,-0.894 -6.7031,-1.1895 -3.6177,-0.4591 -7.3826,-0.7001 -11.0976,-0.7968 z m 17.8437,1.998 c -164.0026,-20.5534 -82.0013,-10.2767 0,0 z m -206.418,133.7207 c 0.087,0.072 0.1683,0.1497 0.2559,0.2207 0,0 0.01,-0.01 0.01,-0.01 -0.088,-0.072 -0.1778,-0.141 -0.2657,-0.2129 z"
           transform="matrix(0.30337391,0,0,0.32734182,-950.73943,-353.23072)"
           sodipodi:nodetypes="cccccccccccccccccc" />
        <path
           id="path9772"
           style="opacity:0.279487;fill:url(#linearGradient9825);fill-opacity:1;stroke:none;stroke-width:0.315626;stroke-linecap:butt;stroke-linejoin:miter;stroke-dasharray:none;stroke-opacity:1"
           d="m 1558.6632,553.16325 c -1.3924,0.0827 -2.875,0.21731 -4.4137,0.40726 -1.7806,0.30692 -2.6376,0.59643 -4.7296,1.37075 l -6.6653,4.77906 0.8829,-0.22633 c 2.4136,-0.79651 4.8053,-1.38753 7.1091,-1.82148 l 0.5955,-0.15216 v 0.006 c 4.6626,-2.18038 9.1055,-3.22288 12.5101,-3.69602 l -0.2406,-0.0933 c -0.5424,-0.12418 -1.1022,-0.23288 -1.6846,-0.31264 -1.0975,-0.15028 -2.2397,-0.22919 -3.3667,-0.26085 z" />
        <path
           id="path1859"
           style="color:#000000;font-style:normal;font-variant:normal;font-weight:normal;font-stretch:normal;font-size:medium;line-height:normal;font-family:sans-serif;font-variant-ligatures:normal;font-variant-position:normal;font-variant-caps:normal;font-variant-numeric:normal;font-variant-alternates:normal;font-variant-east-asian:normal;font-feature-settings:normal;font-variation-settings:normal;text-indent:0;text-align:start;text-decoration:none;text-decoration-line:none;text-decoration-style:solid;text-decoration-color:#000000;letter-spacing:normal;word-spacing:normal;text-transform:none;writing-mode:lr-tb;direction:ltr;text-orientation:mixed;dominant-baseline:auto;baseline-shift:baseline;text-anchor:start;white-space:normal;shape-padding:0;shape-margin:0;inline-size:0;clip-rule:nonzero;display:inline;overflow:visible;visibility:visible;opacity:1;isolation:auto;mix-blend-mode:normal;color-interpolation:sRGB;color-interpolation-filters:linearRGB;solid-color:#000000;solid-opacity:1;fill:#5b0dff;fill-opacity:1;fill-rule:nonzero;stroke:none;stroke-width:11.1903;stroke-linecap:round;stroke-linejoin:miter;stroke-miterlimit:4;stroke-dasharray:none;stroke-dashoffset:0;stroke-opacity:1;color-rendering:auto;image-rendering:auto;shape-rendering:auto;text-rendering:auto;enable-background:accumulate;stop-color:#000000;stop-opacity:1"
           d="m 8289.4522,2770.9389 c -27.2545,3.4454 -75.1114,16.8323 -104.2188,67.1562 -31.7876,54.9578 -86.2601,61.9723 -106.2109,62.627 0.1216,0.1406 0.2796,0.2926 0.4082,0.4355 10.658,0.4782 31.2156,0.6908 54.5918,-2.664 21.6963,-9.6349 44.6846,-26.3142 61.4551,-55.3086 24.4054,-42.1948 62.0575,-56.1061 87.2558,-60.5977 0.9345,-0.7142 1.9039,-1.4983 2.7989,-2.1347 4.4813,-3.1867 8.4465,-5.4094 11.8125,-6.9707 -2.3228,-1.0051 -4.9783,-1.8682 -7.8926,-2.543 z m 8.043,2.5996 c 0.5913,0.2593 1.166,0.526 1.709,0.8047 -0.5424,-0.2793 -1.117,-0.5453 -1.709,-0.8047 z m 1.709,0.8047 c 0.5745,0.2949 1.1182,0.6 1.6328,0.916 -0.513,-0.3166 -1.0594,-0.6208 -1.6328,-0.916 z m 1.6718,0.9394 c 0.4554,0.281 0.8756,0.5739 1.2793,0.8711 -0.4028,-0.2979 -0.8249,-0.5893 -1.2793,-0.8711 z m 1.4824,1.0118 c 0.4481,0.34 0.8614,0.6904 1.2364,1.0507 -0.3747,-0.36 -0.79,-0.7105 -1.2364,-1.0507 z m 3.6172,3.5859 c 0.1859,0.215 0.3601,0.4258 0.5352,0.6367 0.017,3e-4 0.046,-3e-4 0.062,0 -0.1704,-0.2016 -0.4164,-0.4309 -0.5977,-0.6367 z m -223.9648,123.8555 c 0.2086,0.1906 0.3829,0.37 0.6035,0.5644 0.6865,0.5683 1.3802,1.1281 2.084,1.6758 0.059,0.04 0.1383,0.074 0.1992,0.1133 -0.9822,-0.761 -1.9386,-1.5524 -2.8867,-2.3535 z"
           transform="matrix(0.30337391,0,0,0.32734182,-950.73943,-353.23072)" />
        <path
           id="path11038"
           style="color:#000000;font-style:normal;font-variant:normal;font-weight:normal;font-stretch:normal;font-size:medium;line-height:normal;font-family:sans-serif;font-variant-ligatures:normal;font-variant-position:normal;font-variant-caps:normal;font-variant-numeric:normal;font-variant-alternates:normal;font-variant-east-asian:normal;font-feature-settings:normal;font-variation-settings:normal;text-indent:0;text-align:start;text-decoration:none;text-decoration-line:none;text-decoration-style:solid;text-decoration-color:#000000;letter-spacing:normal;word-spacing:normal;text-transform:none;writing-mode:lr-tb;direction:ltr;text-orientation:mixed;dominant-baseline:auto;baseline-shift:baseline;text-anchor:start;white-space:normal;shape-padding:0;shape-margin:0;inline-size:0;clip-rule:nonzero;display:inline;overflow:visible;visibility:visible;opacity:1;isolation:auto;mix-blend-mode:normal;color-interpolation:sRGB;color-interpolation-filters:linearRGB;solid-color:#000000;solid-opacity:1;fill:url(#linearGradient11046);fill-opacity:1;fill-rule:nonzero;stroke:none;stroke-width:11.1903;stroke-linecap:round;stroke-linejoin:miter;stroke-miterlimit:4;stroke-dasharray:none;stroke-dashoffset:0;stroke-opacity:1;color-rendering:auto;image-rendering:auto;shape-rendering:auto;text-rendering:auto;enable-background:accumulate;stop-color:#000000;stop-opacity:1"
           d="m 8289.4522,2770.9389 c -27.2545,3.4454 -75.1114,16.8323 -104.2188,67.1562 -31.7876,54.9578 -86.2601,61.9723 -106.2109,62.627 0.1216,0.1406 0.2796,0.2926 0.4082,0.4355 10.658,0.4782 31.2156,0.6908 54.5918,-2.664 21.6963,-9.6349 44.6846,-26.3142 61.4551,-55.3086 24.4054,-42.1948 62.0575,-56.1061 87.2558,-60.5977 0.9345,-0.7142 1.9039,-1.4983 2.7989,-2.1347 4.4813,-3.1867 8.4465,-5.4094 11.8125,-6.9707 -2.3228,-1.0051 -4.9783,-1.8682 -7.8926,-2.543 z m 8.043,2.5996 c 0.5913,0.2593 1.166,0.526 1.709,0.8047 -0.5424,-0.2793 -1.117,-0.5453 -1.709,-0.8047 z m 1.709,0.8047 c 0.5745,0.2949 1.1182,0.6 1.6328,0.916 -0.513,-0.3166 -1.0594,-0.6208 -1.6328,-0.916 z m 1.6718,0.9394 c 0.4554,0.281 0.8756,0.5739 1.2793,0.8711 -0.4028,-0.2979 -0.8249,-0.5893 -1.2793,-0.8711 z m 1.4824,1.0118 c 0.4481,0.34 0.8614,0.6904 1.2364,1.0507 -0.3747,-0.36 -0.79,-0.7105 -1.2364,-1.0507 z m 3.6172,3.5859 c 0.1859,0.215 0.3601,0.4258 0.5352,0.6367 0.017,3e-4 0.046,-3e-4 0.062,0 -0.1704,-0.2016 -0.4164,-0.4309 -0.5977,-0.6367 z m -223.9648,123.8555 c 0.2086,0.1906 0.3829,0.37 0.6035,0.5644 0.6865,0.5683 1.3802,1.1281 2.084,1.6758 0.059,0.04 0.1383,0.074 0.1992,0.1133 -0.9822,-0.761 -1.9386,-1.5524 -2.8867,-2.3535 z"
           transform="matrix(0.30337391,0,0,0.32734182,-950.73943,-353.23072)" />
        <path
           id="path10955"
           style="opacity:0.274359;fill:url(#linearGradient10957);fill-opacity:1;stroke:none;stroke-width:0.315626;stroke-linecap:butt;stroke-linejoin:miter;stroke-dasharray:none;stroke-opacity:1"
           d="m 1514.0412,593.11877 c -5.7235,2.48367 -10.9484,3.07663 -13.816,3.17816 0.037,0.046 0.085,0.0958 0.1239,0.14257 2.9843,0.14448 8.5379,0.20261 14.95,-0.65084 l 2.5218,-1.82276 z" />
        <path
           id="path9829"
           style="opacity:0.274359;fill:url(#linearGradient9831);fill-opacity:1;stroke:none;stroke-width:0.315626;stroke-linecap:butt;stroke-linejoin:miter;stroke-dasharray:none;stroke-opacity:1"
           d="m 1564.5446,553.95603 c -2.6632,0.37474 -4.3487,0.62778 -5.5644,0.858 -1.7742,0.45619 -3.674,1.0726 -5.6331,1.87326 l -3.6559,2.23641 4.0955,1.26717 c 2.955,-1.29946 5.7803,-2.09001 8.2207,-2.56055 l 0.023,-0.008 c 0.2821,-0.23275 0.5744,-0.4878 0.8444,-0.69497 1.3595,-1.04314 2.5624,-1.77072 3.5836,-2.2818 -0.5708,-0.2665 -1.2225,-0.4924 -1.9139,-0.68985 z m 2.9852,1.27932 c 0.1381,0.092 0.2656,0.18786 0.3881,0.28515 -0.1222,-0.0975 -0.2503,-0.1929 -0.3881,-0.28515 z" />
        <path
           id="path1861"
           style="color:#000000;font-style:normal;font-variant:normal;font-weight:normal;font-stretch:normal;font-size:medium;line-height:normal;font-family:sans-serif;font-variant-ligatures:normal;font-variant-position:normal;font-variant-caps:normal;font-variant-numeric:normal;font-variant-alternates:normal;font-variant-east-asian:normal;font-feature-settings:normal;font-variation-settings:normal;text-indent:0;text-align:start;text-decoration:none;text-decoration-line:none;text-decoration-style:solid;text-decoration-color:#000000;letter-spacing:normal;word-spacing:normal;text-transform:none;writing-mode:lr-tb;direction:ltr;text-orientation:mixed;dominant-baseline:auto;baseline-shift:baseline;text-anchor:start;white-space:normal;shape-padding:0;shape-margin:0;inline-size:0;clip-rule:nonzero;display:inline;overflow:visible;visibility:visible;opacity:1;isolation:auto;mix-blend-mode:normal;color-interpolation:sRGB;color-interpolation-filters:linearRGB;solid-color:#000000;solid-opacity:1;fill:#95daff;fill-opacity:1;fill-rule:nonzero;stroke:none;stroke-width:11.1903;stroke-linecap:round;stroke-linejoin:miter;stroke-miterlimit:4;stroke-dasharray:none;stroke-dashoffset:0;stroke-opacity:1;color-rendering:auto;image-rendering:auto;shape-rendering:auto;text-rendering:auto;enable-background:accumulate;stop-color:#000000;stop-opacity:1"
           d="m 8297.3584,2773.474 c -3.3689,1.5617 -7.3388,3.7877 -11.8261,6.9786 -13.7415,9.7715 -32.2169,28.4368 -52.9785,64.332 -19.2439,33.271 -58.8962,47.4625 -94.5743,53.1504 -25.071,3.997 -47.4061,3.7281 -58.6425,3.2207 0.5613,0.6235 1.1865,1.2689 1.8886,1.9394 1.2925,1.116 2.6144,2.1975 3.9707,3.2383 4.4866,2.7231 12.4521,4.5501 21.168,4.9864 2.618,0.131 5.294,0.1584 7.9551,0.1113 7.9952,-0.5519 16.6376,-1.4475 25.6289,-2.8809 37.437,-5.9684 81.1333,-21.1336 102.8476,-58.6758 20.1965,-34.9178 37.7562,-52.3071 49.8106,-60.8789 6.0272,-4.2859 10.677,-6.3749 13.6621,-7.4043 0.3423,-0.118 0.6296,-0.2114 0.8984,-0.2949 -0.9878,-1.2415 -2.1102,-2.5372 -3.5722,-3.9512 -1.5205,-1.461 -3.6661,-2.7575 -6.2364,-3.8711 z"
           transform="matrix(0.30337391,0,0,0.32734182,-950.73943,-353.23072)" />
        <path
           id="path10809"
           style="color:#000000;font-style:normal;font-variant:normal;font-weight:normal;font-stretch:normal;font-size:medium;line-height:normal;font-family:sans-serif;font-variant-ligatures:normal;font-variant-position:normal;font-variant-caps:normal;font-variant-numeric:normal;font-variant-alternates:normal;font-variant-east-asian:normal;font-feature-settings:normal;font-variation-settings:normal;text-indent:0;text-align:start;text-decoration:none;text-decoration-line:none;text-decoration-style:solid;text-decoration-color:#000000;letter-spacing:normal;word-spacing:normal;text-transform:none;writing-mode:lr-tb;direction:ltr;text-orientation:mixed;dominant-baseline:auto;baseline-shift:baseline;text-anchor:start;white-space:normal;shape-padding:0;shape-margin:0;inline-size:0;clip-rule:nonzero;display:inline;overflow:visible;visibility:visible;opacity:1;isolation:auto;mix-blend-mode:normal;color-interpolation:sRGB;color-interpolation-filters:linearRGB;solid-color:#000000;solid-opacity:1;fill:url(#linearGradient10817);fill-opacity:1;fill-rule:nonzero;stroke:none;stroke-width:11.1903;stroke-linecap:round;stroke-linejoin:miter;stroke-miterlimit:4;stroke-dasharray:none;stroke-dashoffset:0;stroke-opacity:1;color-rendering:auto;image-rendering:auto;shape-rendering:auto;text-rendering:auto;enable-background:accumulate;stop-color:#000000;stop-opacity:1"
           d="m 8297.3584,2773.474 c -3.3689,1.5617 -7.3388,3.7877 -11.8261,6.9786 -13.7415,9.7715 -32.2169,28.4368 -52.9785,64.332 -19.2439,33.271 -58.8962,47.4625 -94.5743,53.1504 -25.071,3.997 -47.4061,3.7281 -58.6425,3.2207 0.5613,0.6235 1.1865,1.2689 1.8886,1.9394 1.2925,1.116 2.6144,2.1975 3.9707,3.2383 4.4866,2.7231 12.4521,4.5501 21.168,4.9864 2.618,0.131 5.294,0.1584 7.9551,0.1113 7.9952,-0.5519 16.6376,-1.4475 25.6289,-2.8809 37.437,-5.9684 81.1333,-21.1336 102.8476,-58.6758 20.1965,-34.9178 37.7562,-52.3071 49.8106,-60.8789 6.0272,-4.2859 10.677,-6.3749 13.6621,-7.4043 0.3423,-0.118 0.6296,-0.2114 0.8984,-0.2949 -0.9878,-1.2415 -2.1102,-2.5372 -3.5722,-3.9512 -1.5205,-1.461 -3.6661,-2.7575 -6.2364,-3.8711 z"
           transform="matrix(0.30337391,0,0,0.32734182,-950.73943,-353.23072)" />
        <path
           id="path10947"
           style="color:#000000;font-style:normal;font-variant:normal;font-weight:normal;font-stretch:normal;font-size:medium;line-height:normal;font-family:sans-serif;font-variant-ligatures:normal;font-variant-position:normal;font-variant-caps:normal;font-variant-numeric:normal;font-variant-alternates:normal;font-variant-east-asian:normal;font-feature-settings:normal;font-variation-settings:normal;text-indent:0;text-align:start;text-decoration:none;text-decoration-line:none;text-decoration-style:solid;text-decoration-color:#000000;letter-spacing:normal;word-spacing:normal;text-transform:none;writing-mode:lr-tb;direction:ltr;text-orientation:mixed;dominant-baseline:auto;baseline-shift:baseline;text-anchor:start;white-space:normal;shape-padding:0;shape-margin:0;inline-size:0;clip-rule:nonzero;display:inline;overflow:visible;visibility:visible;opacity:1;isolation:auto;mix-blend-mode:normal;color-interpolation:sRGB;color-interpolation-filters:linearRGB;solid-color:#000000;solid-opacity:1;fill:url(#linearGradient10949);fill-opacity:1;fill-rule:nonzero;stroke:none;stroke-width:11.1903;stroke-linecap:round;stroke-linejoin:miter;stroke-miterlimit:4;stroke-dasharray:none;stroke-dashoffset:0;stroke-opacity:1;color-rendering:auto;image-rendering:auto;shape-rendering:auto;text-rendering:auto;enable-background:accumulate;stop-color:#000000;stop-opacity:1"
           d="m 8297.3584,2773.474 c -3.3689,1.5617 -7.3388,3.7877 -11.8261,6.9786 -13.7415,9.7715 -32.2169,28.4368 -52.9785,64.332 -19.2439,33.271 -58.8962,47.4625 -94.5743,53.1504 -25.071,3.997 -47.4061,3.7281 -58.6425,3.2207 0.5613,0.6235 1.1865,1.2689 1.8886,1.9394 1.2925,1.116 2.6144,2.1975 3.9707,3.2383 4.4866,2.7231 12.4521,4.5501 21.168,4.9864 2.618,0.131 5.294,0.1584 7.9551,0.1113 7.9952,-0.5519 16.6376,-1.4475 25.6289,-2.8809 37.437,-5.9684 81.1333,-21.1336 102.8476,-58.6758 20.1965,-34.9178 37.7562,-52.3071 49.8106,-60.8789 6.0272,-4.2859 10.677,-6.3749 13.6621,-7.4043 0.3423,-0.118 0.6296,-0.2114 0.8984,-0.2949 -0.9878,-1.2415 -2.1102,-2.5372 -3.5722,-3.9512 -1.5205,-1.461 -3.6661,-2.7575 -6.2364,-3.8711 z"
           transform="matrix(0.30337391,0,0,0.32734182,-950.73943,-353.23072)" />
        <path
           id="path10951"
           style="color:#000000;font-style:normal;font-variant:normal;font-weight:normal;font-stretch:normal;font-size:medium;line-height:normal;font-family:sans-serif;font-variant-ligatures:normal;font-variant-position:normal;font-variant-caps:normal;font-variant-numeric:normal;font-variant-alternates:normal;font-variant-east-asian:normal;font-feature-settings:normal;font-variation-settings:normal;text-indent:0;text-align:start;text-decoration:none;text-decoration-line:none;text-decoration-style:solid;text-decoration-color:#000000;letter-spacing:normal;word-spacing:normal;text-transform:none;writing-mode:lr-tb;direction:ltr;text-orientation:mixed;dominant-baseline:auto;baseline-shift:baseline;text-anchor:start;white-space:normal;shape-padding:0;shape-margin:0;inline-size:0;clip-rule:nonzero;display:inline;overflow:visible;visibility:visible;opacity:1;isolation:auto;mix-blend-mode:normal;color-interpolation:sRGB;color-interpolation-filters:linearRGB;solid-color:#000000;solid-opacity:1;fill:url(#linearGradient10953);fill-opacity:1;fill-rule:nonzero;stroke:none;stroke-width:11.1903;stroke-linecap:round;stroke-linejoin:miter;stroke-miterlimit:4;stroke-dasharray:none;stroke-dashoffset:0;stroke-opacity:1;color-rendering:auto;image-rendering:auto;shape-rendering:auto;text-rendering:auto;enable-background:accumulate;stop-color:#000000;stop-opacity:1"
           d="m 8297.3584,2773.474 c -3.3689,1.5617 -7.3388,3.7877 -11.8261,6.9786 -13.7415,9.7715 -32.2169,28.4368 -52.9785,64.332 -19.2439,33.271 -58.8962,47.4625 -94.5743,53.1504 -25.071,3.997 -47.4061,3.7281 -58.6425,3.2207 0.5613,0.6235 1.1865,1.2689 1.8886,1.9394 1.2925,1.116 2.6144,2.1975 3.9707,3.2383 4.4866,2.7231 12.4521,4.5501 21.168,4.9864 2.618,0.131 5.294,0.1584 7.9551,0.1113 7.9952,-0.5519 16.6376,-1.4475 25.6289,-2.8809 37.437,-5.9684 81.1333,-21.1336 102.8476,-58.6758 20.1965,-34.9178 37.7562,-52.3071 49.8106,-60.8789 6.0272,-4.2859 10.677,-6.3749 13.6621,-7.4043 0.3423,-0.118 0.6296,-0.2114 0.8984,-0.2949 -0.9878,-1.2415 -2.1102,-2.5372 -3.5722,-3.9512 -1.5205,-1.461 -3.6661,-2.7575 -6.2364,-3.8711 z"
           transform="matrix(0.30337391,0,0,0.32734182,-950.73943,-353.23072)" />
        <path
           id="path11143"
           style="color:#000000;font-style:normal;font-variant:normal;font-weight:normal;font-stretch:normal;font-size:medium;line-height:normal;font-family:sans-serif;font-variant-ligatures:normal;font-variant-position:normal;font-variant-caps:normal;font-variant-numeric:normal;font-variant-alternates:normal;font-variant-east-asian:normal;font-feature-settings:normal;font-variation-settings:normal;text-indent:0;text-align:start;text-decoration:none;text-decoration-line:none;text-decoration-style:solid;text-decoration-color:#000000;letter-spacing:normal;word-spacing:normal;text-transform:none;writing-mode:lr-tb;direction:ltr;text-orientation:mixed;dominant-baseline:auto;baseline-shift:baseline;text-anchor:start;white-space:normal;shape-padding:0;shape-margin:0;inline-size:0;clip-rule:nonzero;display:inline;overflow:visible;visibility:visible;opacity:1;isolation:auto;mix-blend-mode:normal;color-interpolation:sRGB;color-interpolation-filters:linearRGB;solid-color:#000000;solid-opacity:1;fill:url(#linearGradient11151);fill-opacity:1;fill-rule:nonzero;stroke:none;stroke-width:11.1903;stroke-linecap:round;stroke-linejoin:miter;stroke-miterlimit:4;stroke-dasharray:none;stroke-dashoffset:0;stroke-opacity:1;color-rendering:auto;image-rendering:auto;shape-rendering:auto;text-rendering:auto;enable-background:accumulate;stop-color:#000000;stop-opacity:1"
           d="m 8271.6495,2768.9526 c -39.1352,2.1546 -98.437,14.5277 -132.9942,65.9218 -21.9569,32.6548 -49.4252,53.0131 -62.6777,61.6563 1.0036,1.8052 2.5142,3.9123 5.0058,6.332 0.4127,0.3586 0.8291,0.7124 1.2403,1.0723 -1.255,-1.132 -2.3317,-2.2073 -3.2012,-3.2129 3.1087,-0.102 7.1306,-0.3967 11.6992,-0.9648 15.4035,-11.091 38.6231,-30.6699 57.7969,-59.1856 25.2325,-37.5264 65.2398,-52.5081 98.9531,-58.1328 15.6684,-6.845 30.6186,-10.0638 41.9785,-11.5 -2.1276,-0.4925 -4.375,-0.894 -6.7031,-1.1895 -3.6177,-0.4591 -7.3826,-0.7001 -11.0976,-0.7968 z m 17.8437,1.998 c -164.0026,-20.5534 -82.0013,-10.2767 0,0 z m -206.418,133.7207 c 0.087,0.072 0.1683,0.1497 0.2559,0.2207 0,0 0.01,-0.01 0.01,-0.01 -0.088,-0.072 -0.1778,-0.141 -0.2657,-0.2129 z"
           transform="matrix(0.30337391,0,0,0.32734182,-950.73943,-353.23072)"
           sodipodi:nodetypes="cccccccccccccccccc" />
      </g>
    </g>
  </g>
</svg>
